<svg xmlns="http://www.w3.org/2000/svg" xmlns:xlink="http://www.w3.org/1999/xlink" width="500" zoomAndPan="magnify" viewBox="0 0 375 374.999991" height="500" preserveAspectRatio="xMidYMid meet" version="1.0"><defs><clipPath id="b7a963e2bd"><path d="M 110 108 L 270 108 L 270 246 L 110 246 Z M 110 108 " clip-rule="nonzero"/></clipPath><clipPath id="41feb39001"><path d="M 96.351562 37.5 L 327.089844 94.820312 L 278.269531 291.347656 L 47.53125 234.027344 Z M 96.351562 37.5 " clip-rule="nonzero"/></clipPath><clipPath id="c0e0f8033c"><path d="M 96.351562 37.5 L 327.089844 94.820312 L 278.269531 291.347656 L 47.53125 234.027344 Z M 96.351562 37.5 " clip-rule="nonzero"/></clipPath><clipPath id="d59caf4cd6"><path d="M 96.351562 37.5 L 327.089844 94.820312 L 278.269531 291.347656 L 47.53125 234.027344 Z M 96.351562 37.5 " clip-rule="nonzero"/></clipPath><clipPath id="22501d92fa"><path d="M 230 124 L 257 124 L 257 164 L 230 164 Z M 230 124 " clip-rule="nonzero"/></clipPath><clipPath id="166a78f4e1"><path d="M 96.351562 37.5 L 327.089844 94.820312 L 278.269531 291.347656 L 47.53125 234.027344 Z M 96.351562 37.5 " clip-rule="nonzero"/></clipPath><clipPath id="b54703f494"><path d="M 96.351562 37.5 L 327.089844 94.820312 L 278.269531 291.347656 L 47.53125 234.027344 Z M 96.351562 37.5 " clip-rule="nonzero"/></clipPath><clipPath id="765792dfb6"><path d="M 96.351562 37.5 L 327.089844 94.820312 L 278.269531 291.347656 L 47.53125 234.027344 Z M 96.351562 37.5 " clip-rule="nonzero"/></clipPath><clipPath id="0a6b96e847"><path d="M 242 166 L 251 166 L 251 175 L 242 175 Z M 242 166 " clip-rule="nonzero"/></clipPath><clipPath id="be0a53da94"><path d="M 96.351562 37.5 L 327.089844 94.820312 L 278.269531 291.347656 L 47.53125 234.027344 Z M 96.351562 37.5 " clip-rule="nonzero"/></clipPath><clipPath id="aa4b40644f"><path d="M 96.351562 37.5 L 327.089844 94.820312 L 278.269531 291.347656 L 47.53125 234.027344 Z M 96.351562 37.5 " clip-rule="nonzero"/></clipPath><clipPath id="363c543d50"><path d="M 96.351562 37.5 L 327.089844 94.820312 L 278.269531 291.347656 L 47.53125 234.027344 Z M 96.351562 37.5 " clip-rule="nonzero"/></clipPath><clipPath id="bebb99ce7e"><path d="M 137 127 L 146 127 L 146 137 L 137 137 Z M 137 127 " clip-rule="nonzero"/></clipPath><clipPath id="5c260d1d30"><path d="M 96.351562 37.5 L 327.089844 94.820312 L 278.269531 291.347656 L 47.53125 234.027344 Z M 96.351562 37.5 " clip-rule="nonzero"/></clipPath><clipPath id="12bf421847"><path d="M 96.351562 37.5 L 327.089844 94.820312 L 278.269531 291.347656 L 47.53125 234.027344 Z M 96.351562 37.5 " clip-rule="nonzero"/></clipPath><clipPath id="970dccc80f"><path d="M 96.351562 37.5 L 327.089844 94.820312 L 278.269531 291.347656 L 47.53125 234.027344 Z M 96.351562 37.5 " clip-rule="nonzero"/></clipPath><clipPath id="e28ae7b1dd"><path d="M 133 142 L 142 142 L 142 151 L 133 151 Z M 133 142 " clip-rule="nonzero"/></clipPath><clipPath id="52c43077db"><path d="M 96.351562 37.5 L 327.089844 94.820312 L 278.269531 291.347656 L 47.53125 234.027344 Z M 96.351562 37.5 " clip-rule="nonzero"/></clipPath><clipPath id="b9997fcbde"><path d="M 96.351562 37.5 L 327.089844 94.820312 L 278.269531 291.347656 L 47.53125 234.027344 Z M 96.351562 37.5 " clip-rule="nonzero"/></clipPath><clipPath id="09599c2072"><path d="M 96.351562 37.5 L 327.089844 94.820312 L 278.269531 291.347656 L 47.53125 234.027344 Z M 96.351562 37.5 " clip-rule="nonzero"/></clipPath><clipPath id="52bb55e113"><path d="M 125 132 L 134 132 L 134 141 L 125 141 Z M 125 132 " clip-rule="nonzero"/></clipPath><clipPath id="a14a894a12"><path d="M 96.351562 37.5 L 327.089844 94.820312 L 278.269531 291.347656 L 47.53125 234.027344 Z M 96.351562 37.5 " clip-rule="nonzero"/></clipPath><clipPath id="eeb0a9ea1a"><path d="M 96.351562 37.5 L 327.089844 94.820312 L 278.269531 291.347656 L 47.53125 234.027344 Z M 96.351562 37.5 " clip-rule="nonzero"/></clipPath><clipPath id="ac02494015"><path d="M 96.351562 37.5 L 327.089844 94.820312 L 278.269531 291.347656 L 47.53125 234.027344 Z M 96.351562 37.5 " clip-rule="nonzero"/></clipPath></defs><rect x="-37.5" width="450" fill="#ffffff" y="-37.499999" height="449.999989" fill-opacity="1"/><rect x="-37.5" width="450" fill="#ffffff" y="-37.499999" height="449.999989" fill-opacity="1"/><g clip-path="url(#b7a963e2bd)"><g clip-path="url(#41feb39001)"><g clip-path="url(#c0e0f8033c)"><g clip-path="url(#d59caf4cd6)"><path fill="#fda2b1" d="M 186.058594 245.945312 C 209.777344 247.84375 292.382812 158.761719 264.175781 125.890625 C 228.121094 83.917969 189.65625 146.679688 189.65625 146.679688 C 189.65625 146.679688 163.644531 83.65625 120.492188 118.78125 C 83.171875 149.160156 162.339844 244.023438 186.058594 245.945312 Z M 186.058594 245.945312 " fill-opacity="1" fill-rule="evenodd"/></g></g></g></g><g clip-path="url(#22501d92fa)"><g clip-path="url(#166a78f4e1)"><g clip-path="url(#b54703f494)"><g clip-path="url(#765792dfb6)"><path fill="#ffffff" d="M 236.097656 124.90625 C 236.097656 124.90625 261.261719 133.46875 255.15625 160.183594 C 254.65625 162.347656 252.5 163.695312 250.34375 163.195312 C 248.183594 162.714844 246.839844 160.558594 247.320312 158.375 C 251.800781 138.828125 233.492188 132.519531 233.492188 132.519531 C 231.390625 131.800781 230.273438 129.519531 230.996094 127.410156 C 231.71875 125.328125 233.996094 124.207031 236.097656 124.90625 Z M 236.097656 124.90625 " fill-opacity="1" fill-rule="evenodd"/></g></g></g></g><g clip-path="url(#0a6b96e847)"><g clip-path="url(#be0a53da94)"><g clip-path="url(#aa4b40644f)"><g clip-path="url(#363c543d50)"><path fill="#ffffff" d="M 242.398438 170.25 C 242.398438 170.230469 242.398438 170.207031 242.402344 170.183594 C 242.371094 167.953125 244.148438 166.140625 246.375 166.109375 C 248.582031 166.078125 250.410156 167.855469 250.441406 170.066406 C 250.4375 170.089844 250.4375 170.109375 250.4375 170.132812 C 250.464844 172.363281 248.691406 174.175781 246.464844 174.207031 C 244.257812 174.238281 242.429688 172.460938 242.398438 170.25 Z M 242.398438 170.25 " fill-opacity="1" fill-rule="evenodd"/></g></g></g></g><g clip-path="url(#bebb99ce7e)"><g clip-path="url(#5c260d1d30)"><g clip-path="url(#12bf421847)"><g clip-path="url(#970dccc80f)"><path fill="#ffffff" d="M 137.53125 131.230469 C 137.871094 129.238281 139.628906 127.757812 141.695312 127.855469 C 143.894531 127.957031 145.609375 129.839844 145.503906 132.066406 C 145.449219 133.222656 145.589844 132.605469 145.105469 133.898438 C 144.296875 135.957031 141.976562 136.984375 139.902344 136.199219 C 137.914062 135.417969 136.902344 133.230469 137.53125 131.230469 Z M 137.53125 131.230469 " fill-opacity="1" fill-rule="evenodd"/></g></g></g></g><g clip-path="url(#e28ae7b1dd)"><g clip-path="url(#52c43077db)"><g clip-path="url(#b9997fcbde)"><g clip-path="url(#09599c2072)"><path fill="#ffffff" d="M 140.808594 144.378906 C 142.019531 146.015625 141.824219 148.347656 140.289062 149.75 C 138.636719 151.257812 136.105469 151.140625 134.625 149.488281 C 134.667969 149.535156 134.753906 149.628906 134.753906 149.628906 C 134.753906 149.628906 133.359375 147.109375 133.351562 146.753906 C 133.257812 144.964844 133.988281 143.640625 135.738281 142.851562 C 136.101562 142.691406 137.015625 142.242188 138.574219 142.691406 C 139.515625 142.980469 140.3125 143.597656 140.808594 144.378906 Z M 138.050781 150.515625 C 137.644531 150.609375 137.042969 150.625 136.273438 150.410156 C 136.867188 150.570312 137.464844 150.621094 138.050781 150.515625 Z M 138.050781 150.515625 " fill-opacity="1" fill-rule="evenodd"/></g></g></g></g><g clip-path="url(#52bb55e113)"><g clip-path="url(#a14a894a12)"><g clip-path="url(#eeb0a9ea1a)"><g clip-path="url(#ac02494015)"><path fill="#ffffff" d="M 133.527344 135.4375 C 134.210938 137.453125 133.21875 139.679688 131.222656 140.480469 C 129.40625 141.199219 128.410156 140.617188 128.085938 140.46875 C 127.429688 140.191406 126.894531 139.789062 126.472656 139.234375 C 126.203125 138.886719 125.714844 135.988281 125.714844 135.988281 C 125.714844 135.988281 125.664062 136.164062 125.652344 136.34375 C 125.757812 134.117188 127.640625 132.398438 129.859375 132.503906 C 131.636719 132.585938 133.070312 133.808594 133.527344 135.4375 Z M 133.527344 135.4375 " fill-opacity="1" fill-rule="evenodd"/></g></g></g></g></svg>